name rise37.2698peak67.6939fall79.5734.mot
datacolumns 19
datarows 33
range 20.00159000000000 20.05492400000000
endheader
time	ground_force1_vx	ground_force1_vy	ground_force1_vz	ground_force1_px	ground_force1_py	ground_force1_pz	ground_force2_vx	ground_force2_vy	ground_force2_vz	ground_force2_px	ground_force2_py	ground_force2_pz	ground_torque1_x	ground_torque1_y	ground_torque1_z	ground_torque2_x	ground_torque2_y	ground_torque2_z	
20.00159000000000	60.25485000000000	770.98996799999998	47.62005300000000	0.35071900000000	0.00000000000000	0.10230700000000	0.65178700000000	3.53164700000000	0.36464000000000	0.00000000000000	0.00000000000000	0.00000000000000	0.00000000000000	21.07787700000000	0.00000000000000	0.00000000000000	0.08695300000000	0.00000000000000	
20.00325500000000	59.92931900000000	774.46115299999997	47.75188900000000	0.35034600000000	0.00000000000000	0.10223800000000	0.00000000000000	0.00000000000000	0.00000000000000	0.00000000000000	0.00000000000000	0.00000000000000	0.00000000000000	21.15696900000000	0.00000000000000	0.00000000000000	0.00000000000000	0.00000000000000	
20.00492400000000	59.59578500000000	777.76244699999995	47.88850800000000	0.34998700000000	0.00000000000000	0.10217000000000	0.00000000000000	0.00000000000000	0.00000000000000	0.00000000000000	0.00000000000000	0.00000000000000	0.00000000000000	21.24170800000000	0.00000000000000	0.00000000000000	0.00000000000000	0.00000000000000	
20.00659900000000	59.25436300000000	780.89228600000001	48.02958800000000	0.34964000000000	0.00000000000000	0.10210300000000	0.00000000000000	0.00000000000000	0.00000000000000	0.00000000000000	0.00000000000000	0.00000000000000	0.00000000000000	21.33181400000000	0.00000000000000	0.00000000000000	0.00000000000000	0.00000000000000	
20.00826000000000	58.90514300000000	783.84937800000000	48.17472900000000	0.34930400000000	0.00000000000000	0.10203700000000	0.00000000000000	0.00000000000000	0.00000000000000	0.00000000000000	0.00000000000000	0.00000000000000	0.00000000000000	21.42695100000000	0.00000000000000	0.00000000000000	0.00000000000000	0.00000000000000	
20.00992400000000	58.54819200000000	786.63270599999998	48.32345400000000	0.34897700000000	0.00000000000000	0.10197100000000	0.00000000000000	0.00000000000000	0.00000000000000	0.00000000000000	0.00000000000000	0.00000000000000	0.00000000000000	21.52673200000000	0.00000000000000	0.00000000000000	0.00000000000000	0.00000000000000	
20.01158900000000	58.18355500000000	789.24153699999999	48.47521800000000	0.34865700000000	0.00000000000000	0.10190700000000	0.00000000000000	0.00000000000000	0.00000000000000	0.00000000000000	0.00000000000000	0.00000000000000	0.00000000000000	21.63071900000000	0.00000000000000	0.00000000000000	0.00000000000000	0.00000000000000	
20.01326400000000	57.81126000000000	791.67542600000002	48.62941300000000	0.34834100000000	0.00000000000000	0.10184300000000	0.00000000000000	0.00000000000000	0.00000000000000	0.00000000000000	0.00000000000000	0.00000000000000	0.00000000000000	21.73842900000000	0.00000000000000	0.00000000000000	0.00000000000000	0.00000000000000	
20.01492200000000	57.43132200000000	793.93421799999999	48.78537400000000	0.34802800000000	0.00000000000000	0.10178000000000	0.00000000000000	0.00000000000000	0.00000000000000	0.00000000000000	0.00000000000000	0.00000000000000	0.00000000000000	21.84933800000000	0.00000000000000	0.00000000000000	0.00000000000000	0.00000000000000	
20.01659500000000	57.04374500000000	796.01805300000001	48.94238700000000	0.34771500000000	0.00000000000000	0.10171800000000	0.00000000000000	0.00000000000000	0.00000000000000	0.00000000000000	0.00000000000000	0.00000000000000	0.00000000000000	21.96288700000000	0.00000000000000	0.00000000000000	0.00000000000000	0.00000000000000	
20.01826200000000	56.64852200000000	797.92736600000001	49.09969600000000	0.34740000000000	0.00000000000000	0.10165700000000	0.00000000000000	0.00000000000000	0.00000000000000	0.00000000000000	0.00000000000000	0.00000000000000	0.00000000000000	22.07848400000000	0.00000000000000	0.00000000000000	0.00000000000000	0.00000000000000	
20.01992200000000	56.24564400000000	799.66288899999995	49.25650900000000	0.34708100000000	0.00000000000000	0.10159700000000	0.00000000000000	0.00000000000000	0.00000000000000	0.00000000000000	0.00000000000000	0.00000000000000	0.00000000000000	22.19551000000000	0.00000000000000	0.00000000000000	0.00000000000000	0.00000000000000	
20.02158800000000	55.83510100000000	801.22564699999998	49.41200700000000	0.34675600000000	0.00000000000000	0.10153800000000	0.00000000000000	0.00000000000000	0.00000000000000	0.00000000000000	0.00000000000000	0.00000000000000	0.00000000000000	22.31332500000000	0.00000000000000	0.00000000000000	0.00000000000000	0.00000000000000	
20.02326300000000	55.41688000000000	802.61696099999995	49.56535000000000	0.34642300000000	0.00000000000000	0.10148000000000	0.00000000000000	0.00000000000000	0.00000000000000	0.00000000000000	0.00000000000000	0.00000000000000	0.00000000000000	22.43127100000000	0.00000000000000	0.00000000000000	0.00000000000000	0.00000000000000	
20.02492900000000	54.99097700000000	803.83843999999999	49.71568200000000	0.34608000000000	0.00000000000000	0.10142300000000	0.00000000000000	0.00000000000000	0.00000000000000	0.00000000000000	0.00000000000000	0.00000000000000	0.00000000000000	22.54867600000000	0.00000000000000	0.00000000000000	0.00000000000000	0.00000000000000	
20.02660500000000	54.55739100000000	804.89197999999999	49.86214200000000	0.34572400000000	0.00000000000000	0.10136600000000	0.00000000000000	0.00000000000000	0.00000000000000	0.00000000000000	0.00000000000000	0.00000000000000	0.00000000000000	22.66486200000000	0.00000000000000	0.00000000000000	0.00000000000000	0.00000000000000	
20.02826200000000	54.11613300000000	805.77976000000001	50.00386800000000	0.34535300000000	0.00000000000000	0.10131100000000	0.00000000000000	0.00000000000000	0.00000000000000	0.00000000000000	0.00000000000000	0.00000000000000	0.00000000000000	22.77914800000000	0.00000000000000	0.00000000000000	0.00000000000000	0.00000000000000	
20.02992900000000	53.66722500000000	806.50423100000000	50.14000500000000	0.34496600000000	0.00000000000000	0.10125600000000	0.00000000000000	0.00000000000000	0.00000000000000	0.00000000000000	0.00000000000000	0.00000000000000	0.00000000000000	22.89085400000000	0.00000000000000	0.00000000000000	0.00000000000000	0.00000000000000	
20.03160300000000	53.21070400000000	807.06811300000004	50.26971300000000	0.34456000000000	0.00000000000000	0.10120300000000	0.00000000000000	0.00000000000000	0.00000000000000	0.00000000000000	0.00000000000000	0.00000000000000	0.00000000000000	22.99930600000000	0.00000000000000	0.00000000000000	0.00000000000000	0.00000000000000	
20.03325600000000	52.74662400000000	807.47438899999997	50.39216600000000	0.34413300000000	0.00000000000000	0.10115000000000	0.00000000000000	0.00000000000000	0.00000000000000	0.00000000000000	0.00000000000000	0.00000000000000	0.00000000000000	23.10384400000000	0.00000000000000	0.00000000000000	0.00000000000000	0.00000000000000	
20.03492700000000	52.27505700000000	807.72628899999995	50.50656900000000	0.34368400000000	0.00000000000000	0.10109800000000	0.00000000000000	0.00000000000000	0.00000000000000	0.00000000000000	0.00000000000000	0.00000000000000	0.00000000000000	23.20381900000000	0.00000000000000	0.00000000000000	0.00000000000000	0.00000000000000	
20.03660500000000	51.79609600000000	807.82728699999996	50.61215400000000	0.34321100000000	0.00000000000000	0.10104800000000	0.00000000000000	0.00000000000000	0.00000000000000	0.00000000000000	0.00000000000000	0.00000000000000	0.00000000000000	23.29860500000000	0.00000000000000	0.00000000000000	0.00000000000000	0.00000000000000	
20.03825600000000	51.30985600000000	807.78108499999996	50.70819000000000	0.34271200000000	0.00000000000000	0.10099800000000	0.00000000000000	0.00000000000000	0.00000000000000	0.00000000000000	0.00000000000000	0.00000000000000	0.00000000000000	23.38759800000000	0.00000000000000	0.00000000000000	0.00000000000000	0.00000000000000	
20.03992300000000	50.81647700000000	807.59160699999995	50.79398500000000	0.34218400000000	0.00000000000000	0.10094900000000	0.00000000000000	0.00000000000000	0.00000000000000	0.00000000000000	0.00000000000000	0.00000000000000	0.00000000000000	23.47022200000000	0.00000000000000	0.00000000000000	0.00000000000000	0.00000000000000	
20.04160400000000	50.31612200000000	807.26298099999997	50.86889300000000	0.34162800000000	0.00000000000000	0.10090100000000	0.00000000000000	0.00000000000000	0.00000000000000	0.00000000000000	0.00000000000000	0.00000000000000	0.00000000000000	23.54593200000000	0.00000000000000	0.00000000000000	0.00000000000000	0.00000000000000	
20.04326300000000	49.80898100000000	806.79953200000000	50.93231600000000	0.34104000000000	0.00000000000000	0.10085300000000	0.00000000000000	0.00000000000000	0.00000000000000	0.00000000000000	0.00000000000000	0.00000000000000	0.00000000000000	23.61421700000000	0.00000000000000	0.00000000000000	0.00000000000000	0.00000000000000	
20.04492800000000	49.29526800000000	806.20576300000005	50.98370800000000	0.34042000000000	0.00000000000000	0.10080700000000	0.00000000000000	0.00000000000000	0.00000000000000	0.00000000000000	0.00000000000000	0.00000000000000	0.00000000000000	23.67460200000000	0.00000000000000	0.00000000000000	0.00000000000000	0.00000000000000	
20.04660500000000	48.77522900000000	805.48634700000002	51.02257900000000	0.33976700000000	0.00000000000000	0.10076100000000	0.00000000000000	0.00000000000000	0.00000000000000	0.00000000000000	0.00000000000000	0.00000000000000	0.00000000000000	23.72665400000000	0.00000000000000	0.00000000000000	0.00000000000000	0.00000000000000	
20.04826300000000	48.24913100000000	804.64610600000003	51.04849400000000	0.33907900000000	0.00000000000000	0.10071700000000	0.00000000000000	0.00000000000000	0.00000000000000	0.00000000000000	0.00000000000000	0.00000000000000	0.00000000000000	23.76998000000000	0.00000000000000	0.00000000000000	0.00000000000000	0.00000000000000	
20.04992100000000	47.71727200000000	803.69000400000004	51.06108000000000	0.33835500000000	0.00000000000000	0.10067300000000	0.00000000000000	0.00000000000000	0.00000000000000	0.00000000000000	0.00000000000000	0.00000000000000	0.00000000000000	23.80423200000000	0.00000000000000	0.00000000000000	0.00000000000000	0.00000000000000	
20.05160300000000	47.17997600000000	802.62312499999996	51.06002300000000	0.33759500000000	0.00000000000000	0.10063000000000	0.00000000000000	0.00000000000000	0.00000000000000	0.00000000000000	0.00000000000000	0.00000000000000	0.00000000000000	23.82911000000000	0.00000000000000	0.00000000000000	0.00000000000000	0.00000000000000	
20.05326800000000	46.63759500000000	801.45066199999997	51.04507200000000	0.33679700000000	0.00000000000000	0.10058800000000	0.00000000000000	0.00000000000000	0.00000000000000	0.00000000000000	0.00000000000000	0.00000000000000	0.00000000000000	23.84435700000000	0.00000000000000	0.00000000000000	0.00000000000000	0.00000000000000	
20.05492400000000	46.09050300000000	800.17789900000002	51.01603900000000	0.33596100000000	0.00000000000000	0.10054700000000	0.00000000000000	0.00000000000000	0.00000000000000	0.00000000000000	0.00000000000000	0.00000000000000	0.00000000000000	23.84976700000000	0.00000000000000	0.00000000000000	0.00000000000000	0.00000000000000	
